# Blender 3.3.1
# www.blender.org
mtllib Duble Yol.mtl
o Duble_Yol
v -7.995890 -0.050000 13.999458
v -7.995890 0.150000 13.999458
v -7.995890 -0.050000 12.999458
v -7.995890 0.150000 12.999458
v -2.995890 -0.050000 13.999458
v -2.995890 0.150000 13.999458
v -2.995890 -0.050000 12.999458
v -2.995890 0.150000 12.999458
v -7.995890 -0.050000 18.000000
v -7.995890 0.050000 18.000000
v -7.995890 -0.050000 16.000000
v -7.995890 0.050000 16.000000
v -2.995890 -0.050000 18.000000
v -2.995890 0.050000 18.000000
v -2.995890 -0.050000 16.000000
v -2.995890 0.050000 16.000000
v -7.995890 -0.050000 19.001354
v -7.995890 0.150000 19.001354
v -7.995890 -0.050000 18.001354
v -7.995890 0.150000 18.001354
v -2.995890 -0.050000 19.001354
v -2.995890 0.150000 19.001354
v -2.995890 -0.050000 18.001354
v -2.995890 0.150000 18.001354
v -7.795812 -0.039724 17.049969
v -7.795812 0.060276 17.049969
v -7.795812 -0.039724 16.949968
v -7.795812 0.060276 16.949968
v -5.795812 -0.039724 17.049969
v -5.795812 0.060276 17.049969
v -5.795812 -0.039724 16.949968
v -5.795812 0.060276 16.949968
v -5.196893 -0.039724 17.050020
v -5.196893 0.060276 17.050020
v -5.196893 -0.039724 16.950022
v -5.196893 0.060276 16.950022
v -3.196893 -0.039724 17.050020
v -3.196893 0.060276 17.050020
v -3.196893 -0.039724 16.950022
v -3.196893 0.060276 16.950022
v -5.196893 -0.039724 15.050021
v -5.196893 0.060276 15.050021
v -5.196893 -0.039724 14.950021
v -5.196893 0.060276 14.950021
v -3.196893 -0.039724 15.050021
v -3.196893 0.060276 15.050021
v -3.196893 -0.039724 14.950021
v -3.196893 0.060276 14.950021
v -7.795812 -0.039724 15.049969
v -7.795812 0.060276 15.049969
v -7.795812 -0.039724 14.949968
v -7.795812 0.060276 14.949968
v -5.795812 -0.039724 15.049969
v -5.795812 0.060276 15.049969
v -5.795812 -0.039724 14.949968
v -5.795812 0.060276 14.949968
v -7.995890 -0.050000 16.000000
v -7.995890 0.050000 16.000000
v -7.995890 -0.050000 14.000000
v -7.995890 0.050000 14.000000
v -2.995890 -0.050000 16.000000
v -2.995890 0.050000 16.000000
v -2.995890 -0.050000 14.000000
v -2.995890 0.050000 14.000000
vn -1.0000 -0.0000 -0.0000
vn -0.0000 -0.0000 -1.0000
vn 1.0000 -0.0000 -0.0000
vn -0.0000 -0.0000 1.0000
vn -0.0000 -1.0000 -0.0000
vn -0.0000 1.0000 -0.0000
vt 0.375000 0.000000
vt 0.375000 1.000000
vt 0.125000 0.750000
vt 0.625000 0.000000
vt 0.625000 1.000000
vt 0.875000 0.750000
vt 0.375000 0.250000
vt 0.125000 0.500000
vt 0.625000 0.250000
vt 0.875000 0.500000
vt 0.375000 0.750000
vt 0.625000 0.750000
vt 0.375000 0.500000
vt 0.625000 0.500000
vt 0.375000 0.000000
vt 0.375000 1.000000
vt 0.125000 0.750000
vt 0.625000 0.000000
vt 0.625000 1.000000
vt 0.875000 0.750000
vt 0.375000 0.250000
vt 0.125000 0.500000
vt 0.625000 0.250000
vt 0.875000 0.500000
vt 0.375000 0.750000
vt 0.625000 0.750000
vt 0.375000 0.500000
vt 0.625000 0.500000
vt 0.375000 0.000000
vt 0.375000 1.000000
vt 0.125000 0.750000
vt 0.625000 0.000000
vt 0.625000 1.000000
vt 0.875000 0.750000
vt 0.375000 0.250000
vt 0.125000 0.500000
vt 0.625000 0.250000
vt 0.875000 0.500000
vt 0.375000 0.750000
vt 0.625000 0.750000
vt 0.375000 0.500000
vt 0.625000 0.500000
vt 0.375000 0.000000
vt 0.375000 1.000000
vt 0.125000 0.750000
vt 0.625000 0.000000
vt 0.625000 1.000000
vt 0.875000 0.750000
vt 0.375000 0.250000
vt 0.125000 0.500000
vt 0.625000 0.250000
vt 0.875000 0.500000
vt 0.375000 0.750000
vt 0.625000 0.750000
vt 0.375000 0.500000
vt 0.625000 0.500000
vt 0.375000 0.000000
vt 0.375000 1.000000
vt 0.125000 0.750000
vt 0.625000 0.000000
vt 0.625000 1.000000
vt 0.875000 0.750000
vt 0.375000 0.250000
vt 0.125000 0.500000
vt 0.625000 0.250000
vt 0.875000 0.500000
vt 0.375000 0.750000
vt 0.625000 0.750000
vt 0.375000 0.500000
vt 0.625000 0.500000
vt 0.375000 0.000000
vt 0.375000 1.000000
vt 0.125000 0.750000
vt 0.625000 0.000000
vt 0.625000 1.000000
vt 0.875000 0.750000
vt 0.375000 0.250000
vt 0.125000 0.500000
vt 0.625000 0.250000
vt 0.875000 0.500000
vt 0.375000 0.750000
vt 0.625000 0.750000
vt 0.375000 0.500000
vt 0.625000 0.500000
vt 0.375000 0.000000
vt 0.375000 1.000000
vt 0.125000 0.750000
vt 0.625000 0.000000
vt 0.625000 1.000000
vt 0.875000 0.750000
vt 0.375000 0.250000
vt 0.125000 0.500000
vt 0.625000 0.250000
vt 0.875000 0.500000
vt 0.375000 0.750000
vt 0.625000 0.750000
vt 0.375000 0.500000
vt 0.625000 0.500000
vt 0.375000 0.000000
vt 0.375000 1.000000
vt 0.125000 0.750000
vt 0.625000 0.000000
vt 0.625000 1.000000
vt 0.875000 0.750000
vt 0.375000 0.250000
vt 0.125000 0.500000
vt 0.625000 0.250000
vt 0.875000 0.500000
vt 0.375000 0.750000
vt 0.625000 0.750000
vt 0.375000 0.500000
vt 0.625000 0.500000
s 0
usemtl Sidewalk
f 1/1/1 2/4/1 4/9/1 3/7/1
f 3/7/2 4/9/2 8/14/2 7/13/2
f 7/13/3 8/14/3 6/12/3 5/11/3
f 5/11/4 6/12/4 2/5/4 1/2/4
f 3/8/5 7/13/5 5/11/5 1/3/5
f 8/14/6 4/10/6 2/6/6 6/12/6
f 17/29/1 18/32/1 20/37/1 19/35/1
f 19/35/2 20/37/2 24/42/2 23/41/2
f 23/41/3 24/42/3 22/40/3 21/39/3
f 21/39/4 22/40/4 18/33/4 17/30/4
f 19/36/5 23/41/5 21/39/5 17/31/5
f 24/42/6 20/38/6 18/34/6 22/40/6
usemtl Road
f 9/15/1 10/18/1 12/23/1 11/21/1
f 11/21/2 12/23/2 16/28/2 15/27/2
f 15/27/3 16/28/3 14/26/3 13/25/3
f 13/25/4 14/26/4 10/19/4 9/16/4
f 11/22/5 15/27/5 13/25/5 9/17/5
f 16/28/6 12/24/6 10/20/6 14/26/6
f 57/99/1 58/102/1 60/107/1 59/105/1
f 59/105/2 60/107/2 64/112/2 63/111/2
f 63/111/3 64/112/3 62/110/3 61/109/3
f 61/109/4 62/110/4 58/103/4 57/100/4
f 59/106/5 63/111/5 61/109/5 57/101/5
f 64/112/6 60/108/6 58/104/6 62/110/6
usemtl Line
f 25/43/1 26/46/1 28/51/1 27/49/1
f 27/49/2 28/51/2 32/56/2 31/55/2
f 31/55/3 32/56/3 30/54/3 29/53/3
f 29/53/4 30/54/4 26/47/4 25/44/4
f 27/50/5 31/55/5 29/53/5 25/45/5
f 32/56/6 28/52/6 26/48/6 30/54/6
f 33/57/1 34/60/1 36/65/1 35/63/1
f 35/63/2 36/65/2 40/70/2 39/69/2
f 39/69/3 40/70/3 38/68/3 37/67/3
f 37/67/4 38/68/4 34/61/4 33/58/4
f 35/64/5 39/69/5 37/67/5 33/59/5
f 40/70/6 36/66/6 34/62/6 38/68/6
f 41/71/1 42/74/1 44/79/1 43/77/1
f 43/77/2 44/79/2 48/84/2 47/83/2
f 47/83/3 48/84/3 46/82/3 45/81/3
f 45/81/4 46/82/4 42/75/4 41/72/4
f 43/78/5 47/83/5 45/81/5 41/73/5
f 48/84/6 44/80/6 42/76/6 46/82/6
f 49/85/1 50/88/1 52/93/1 51/91/1
f 51/91/2 52/93/2 56/98/2 55/97/2
f 55/97/3 56/98/3 54/96/3 53/95/3
f 53/95/4 54/96/4 50/89/4 49/86/4
f 51/92/5 55/97/5 53/95/5 49/87/5
f 56/98/6 52/94/6 50/90/6 54/96/6
