# Blender 3.3.1
# www.blender.org
mtllib Duble Yol Donus.mtl
o Duble_Yol_Donus
v -14.992748 -0.050000 13.001354
v -14.992748 0.150000 13.001354
v -13.992748 -0.050000 13.001354
v -13.992748 0.150000 13.001354
v -14.992748 -0.050000 14.001354
v -14.992748 0.150000 14.001354
v -13.992748 -0.050000 14.001354
v -13.992748 0.150000 14.001354
v -13.995888 -0.050000 13.999459
v -13.995888 0.150000 13.999459
v -13.995888 -0.050000 12.999459
v -13.995888 0.150000 12.999459
v -8.995888 -0.050000 13.999459
v -8.995888 0.150000 13.999459
v -8.995888 -0.050000 12.999459
v -8.995888 0.150000 12.999459
v -13.995888 -0.050000 18.000000
v -13.995888 0.050000 18.000000
v -13.995888 -0.050000 16.000000
v -13.995888 0.050000 16.000000
v -8.995888 -0.050000 18.000000
v -8.995888 0.050000 18.000000
v -8.995888 -0.050000 16.000000
v -8.995888 0.050000 16.000000
v -13.995888 -0.050000 19.001356
v -13.995888 0.150000 19.001356
v -13.995888 -0.050000 18.001356
v -13.995888 0.150000 18.001356
v -8.995888 -0.050000 19.001356
v -8.995888 0.150000 19.001356
v -8.995888 -0.050000 18.001356
v -8.995888 0.150000 18.001356
v -13.795810 -0.039724 17.049969
v -13.795810 0.060276 17.049969
v -13.795810 -0.039724 16.949970
v -13.795810 0.060276 16.949970
v -11.795810 -0.039724 17.049969
v -11.795810 0.060276 17.049969
v -11.795810 -0.039724 16.949970
v -11.795810 0.060276 16.949970
v -11.196892 -0.039724 17.050022
v -11.196892 0.060276 17.050022
v -11.196892 -0.039724 16.950022
v -11.196892 0.060276 16.950022
v -9.196892 -0.039724 17.050022
v -9.196892 0.060276 17.050022
v -9.196892 -0.039724 16.950022
v -9.196892 0.060276 16.950022
v -11.196892 -0.039724 15.050022
v -11.196892 0.060276 15.050022
v -11.196892 -0.039724 14.950022
v -11.196892 0.060276 14.950022
v -9.196892 -0.039724 15.050022
v -9.196892 0.060276 15.050022
v -9.196892 -0.039724 14.950022
v -9.196892 0.060276 14.950022
v -13.795810 -0.039724 15.049969
v -13.795810 0.060276 15.049969
v -13.795810 -0.039724 14.949969
v -13.795810 0.060276 14.949969
v -11.795810 -0.039724 15.049969
v -11.795810 0.060276 15.049969
v -11.795810 -0.039724 14.949969
v -11.795810 0.060276 14.949969
v -13.995888 -0.050000 16.000000
v -13.995888 0.050000 16.000000
v -13.995888 -0.050000 14.000001
v -13.995888 0.050000 14.000001
v -8.995888 -0.050000 16.000000
v -8.995888 0.050000 16.000000
v -8.995888 -0.050000 14.000001
v -8.995888 0.050000 14.000001
v -14.995478 -0.050000 7.984786
v -14.995478 0.150000 7.984786
v -13.995478 -0.050000 7.984786
v -13.995478 0.150000 7.984786
v -14.995478 -0.050000 12.984786
v -14.995478 0.150000 12.984786
v -13.995478 -0.050000 12.984785
v -13.995478 0.150000 12.984785
v -18.996019 -0.050000 7.984786
v -18.996019 0.050000 7.984786
v -16.996019 -0.050000 7.984786
v -16.996019 0.050000 7.984786
v -18.996019 -0.050000 12.984786
v -18.996019 0.050000 12.984786
v -16.996019 -0.050000 12.984786
v -16.996019 0.050000 12.984786
v -19.997375 -0.050000 7.984786
v -19.997375 0.150000 7.984786
v -18.997375 -0.050000 7.984786
v -18.997375 0.150000 7.984786
v -19.997375 -0.050000 12.984786
v -19.997375 0.150000 12.984786
v -18.997375 -0.050000 12.984786
v -18.997375 0.150000 12.984786
v -18.045988 -0.039724 8.184864
v -18.045988 0.060276 8.184864
v -17.945988 -0.039724 8.184864
v -17.945988 0.060276 8.184864
v -18.045988 -0.039724 10.184864
v -18.045988 0.060276 10.184864
v -17.945988 -0.039724 10.184864
v -17.945988 0.060276 10.184864
v -18.046040 -0.039724 10.783783
v -18.046040 0.060276 10.783783
v -17.946041 -0.039724 10.783783
v -17.946041 0.060276 10.783783
v -18.046040 -0.039724 12.783783
v -18.046040 0.060276 12.783783
v -17.946041 -0.039724 12.783783
v -17.946041 0.060276 12.783783
v -16.046040 -0.039724 10.783783
v -16.046040 0.060276 10.783783
v -15.946041 -0.039724 10.783783
v -15.946041 0.060276 10.783783
v -16.046040 -0.039724 12.783782
v -16.046040 0.060276 12.783782
v -15.946040 -0.039724 12.783782
v -15.946040 0.060276 12.783782
v -16.045988 -0.039724 8.184864
v -16.045988 0.060276 8.184864
v -15.945989 -0.039724 8.184864
v -15.945989 0.060276 8.184864
v -16.045988 -0.039724 10.184864
v -16.045988 0.060276 10.184864
v -15.945988 -0.039724 10.184864
v -15.945988 0.060276 10.184864
v -16.996019 -0.050000 7.984786
v -16.996019 0.050000 7.984786
v -14.996019 -0.050000 7.984786
v -14.996019 0.050000 7.984786
v -16.996019 -0.050000 12.984786
v -16.996019 0.050000 12.984786
v -14.996019 -0.050000 12.984786
v -14.996019 0.050000 12.984786
v -19.000000 -0.050000 17.001053
v -19.000000 0.050000 17.001053
v -19.000000 -0.050000 15.001053
v -19.000000 0.050000 15.001053
v -15.000000 -0.050000 17.001053
v -15.000000 0.050000 17.001053
v -15.000000 -0.050000 15.001053
v -15.000000 0.050000 15.001053
v -19.000000 -0.050000 15.001053
v -19.000000 0.050000 15.001053
v -19.000000 -0.050000 13.001053
v -19.000000 0.050000 13.001053
v -15.000000 -0.050000 15.001053
v -15.000000 0.050000 15.001053
v -15.000000 -0.050000 13.001053
v -15.000000 0.050000 13.001053
v -14.000000 -0.050000 18.001053
v -14.000000 0.050000 18.001053
v -16.000000 -0.050000 18.001053
v -16.000000 0.050000 18.001053
v -14.000000 -0.050000 14.001053
v -14.000000 0.050000 14.001053
v -16.000000 -0.050000 14.001053
v -16.000000 0.050000 14.001053
v -19.000000 -0.050000 18.001053
v -19.000000 0.050000 18.001053
v -19.000000 -0.050000 16.001053
v -19.000000 0.050000 16.001053
v -15.000000 -0.050000 18.001053
v -15.000000 0.050000 18.001053
v -15.000000 -0.050000 16.001053
v -15.000000 0.050000 16.001053
v -15.951983 -0.039724 15.048786
v -15.951983 0.060276 15.048786
v -16.051983 -0.039724 15.048786
v -16.051983 0.060276 15.048786
v -15.951983 -0.039724 13.548786
v -15.951983 0.060276 13.548786
v -16.051983 -0.039724 13.548786
v -16.051983 0.060276 13.548786
v -16.049923 -0.039724 15.049971
v -16.049923 0.060276 15.049971
v -16.049923 -0.039724 14.949970
v -16.049923 0.060276 14.949970
v -14.549922 -0.039724 15.049971
v -14.549922 0.060276 15.049971
v -14.549922 -0.039724 14.949970
v -14.549922 0.060276 14.949970
v -17.951984 -0.039724 17.048786
v -17.951984 0.060276 17.048786
v -18.051983 -0.039724 17.048786
v -18.051983 0.060276 17.048786
v -17.951982 -0.039724 15.548785
v -17.951982 0.060276 15.548785
v -18.051983 -0.039724 15.548785
v -18.051983 0.060276 15.548785
v -18.049923 -0.039724 17.049969
v -18.049923 0.060276 17.049969
v -18.049923 -0.039724 16.949970
v -18.049923 0.060276 16.949970
v -16.549923 -0.039724 17.049969
v -16.549923 0.060276 17.049969
v -16.549923 -0.039724 16.949970
v -16.549923 0.060276 16.949970
v -16.205389 -0.039724 17.049969
v -16.205389 0.060276 17.049969
v -16.205389 -0.039724 16.949968
v -16.205389 0.060276 16.949968
v -14.205390 -0.039724 17.049969
v -14.205390 0.060276 17.049969
v -14.205390 -0.039724 16.949968
v -14.205390 0.060276 16.949968
v -17.952179 -0.039724 15.151925
v -17.952179 0.060276 15.151925
v -18.052177 -0.039724 15.151925
v -18.052177 0.060276 15.151925
v -17.952179 -0.039724 13.151925
v -17.952179 0.060276 13.151925
v -18.052177 -0.039724 13.151925
v -18.052177 0.060276 13.151925
v -18.992748 -0.050000 19.001354
v -18.992748 0.150000 19.001354
v -18.992748 -0.050000 18.001354
v -18.992748 0.150000 18.001354
v -13.992748 -0.050000 19.001354
v -13.992748 0.150000 19.001354
v -13.992748 -0.050000 18.001354
v -13.992748 0.150000 18.001354
v -19.992748 -0.050000 13.001353
v -19.992748 0.150000 13.001353
v -18.992748 -0.050000 13.001353
v -18.992748 0.150000 13.001353
v -19.992748 -0.050000 19.001354
v -19.992748 0.150000 19.001354
v -18.992748 -0.050000 19.001354
v -18.992748 0.150000 19.001354
vn -0.0000 -0.0000 -1.0000
vn 1.0000 -0.0000 -0.0000
vn -0.0000 -0.0000 1.0000
vn -1.0000 -0.0000 -0.0000
vn -0.0000 -1.0000 -0.0000
vn -0.0000 1.0000 -0.0000
vt 0.375000 0.000000
vt 0.375000 1.000000
vt 0.125000 0.750000
vt 0.625000 0.000000
vt 0.625000 1.000000
vt 0.875000 0.750000
vt 0.375000 0.250000
vt 0.125000 0.500000
vt 0.625000 0.250000
vt 0.875000 0.500000
vt 0.375000 0.750000
vt 0.625000 0.750000
vt 0.375000 0.500000
vt 0.625000 0.500000
vt 0.375000 0.000000
vt 0.375000 1.000000
vt 0.125000 0.750000
vt 0.625000 0.000000
vt 0.625000 1.000000
vt 0.875000 0.750000
vt 0.375000 0.250000
vt 0.125000 0.500000
vt 0.625000 0.250000
vt 0.875000 0.500000
vt 0.375000 0.750000
vt 0.625000 0.750000
vt 0.375000 0.500000
vt 0.625000 0.500000
vt 0.375000 0.000000
vt 0.375000 1.000000
vt 0.125000 0.750000
vt 0.625000 0.000000
vt 0.625000 1.000000
vt 0.875000 0.750000
vt 0.375000 0.250000
vt 0.125000 0.500000
vt 0.625000 0.250000
vt 0.875000 0.500000
vt 0.375000 0.750000
vt 0.625000 0.750000
vt 0.375000 0.500000
vt 0.625000 0.500000
vt 0.375000 0.000000
vt 0.375000 1.000000
vt 0.125000 0.750000
vt 0.625000 0.000000
vt 0.625000 1.000000
vt 0.875000 0.750000
vt 0.375000 0.250000
vt 0.125000 0.500000
vt 0.625000 0.250000
vt 0.875000 0.500000
vt 0.375000 0.750000
vt 0.625000 0.750000
vt 0.375000 0.500000
vt 0.625000 0.500000
vt 0.375000 0.000000
vt 0.375000 1.000000
vt 0.125000 0.750000
vt 0.625000 0.000000
vt 0.625000 1.000000
vt 0.875000 0.750000
vt 0.375000 0.250000
vt 0.125000 0.500000
vt 0.625000 0.250000
vt 0.875000 0.500000
vt 0.375000 0.750000
vt 0.625000 0.750000
vt 0.375000 0.500000
vt 0.625000 0.500000
vt 0.375000 0.000000
vt 0.375000 1.000000
vt 0.125000 0.750000
vt 0.625000 0.000000
vt 0.625000 1.000000
vt 0.875000 0.750000
vt 0.375000 0.250000
vt 0.125000 0.500000
vt 0.625000 0.250000
vt 0.875000 0.500000
vt 0.375000 0.750000
vt 0.625000 0.750000
vt 0.375000 0.500000
vt 0.625000 0.500000
vt 0.375000 0.000000
vt 0.375000 1.000000
vt 0.125000 0.750000
vt 0.625000 0.000000
vt 0.625000 1.000000
vt 0.875000 0.750000
vt 0.375000 0.250000
vt 0.125000 0.500000
vt 0.625000 0.250000
vt 0.875000 0.500000
vt 0.375000 0.750000
vt 0.625000 0.750000
vt 0.375000 0.500000
vt 0.625000 0.500000
vt 0.375000 0.000000
vt 0.375000 1.000000
vt 0.125000 0.750000
vt 0.625000 0.000000
vt 0.625000 1.000000
vt 0.875000 0.750000
vt 0.375000 0.250000
vt 0.125000 0.500000
vt 0.625000 0.250000
vt 0.875000 0.500000
vt 0.375000 0.750000
vt 0.625000 0.750000
vt 0.375000 0.500000
vt 0.625000 0.500000
vt 0.375000 0.000000
vt 0.375000 1.000000
vt 0.125000 0.750000
vt 0.625000 0.000000
vt 0.625000 1.000000
vt 0.875000 0.750000
vt 0.375000 0.250000
vt 0.125000 0.500000
vt 0.625000 0.250000
vt 0.875000 0.500000
vt 0.375000 0.750000
vt 0.625000 0.750000
vt 0.375000 0.500000
vt 0.625000 0.500000
vt 0.375000 0.000000
vt 0.375000 1.000000
vt 0.125000 0.750000
vt 0.625000 0.000000
vt 0.625000 1.000000
vt 0.875000 0.750000
vt 0.375000 0.250000
vt 0.125000 0.500000
vt 0.625000 0.250000
vt 0.875000 0.500000
vt 0.375000 0.750000
vt 0.625000 0.750000
vt 0.375000 0.500000
vt 0.625000 0.500000
vt 0.375000 0.000000
vt 0.375000 1.000000
vt 0.125000 0.750000
vt 0.625000 0.000000
vt 0.625000 1.000000
vt 0.875000 0.750000
vt 0.375000 0.250000
vt 0.125000 0.500000
vt 0.625000 0.250000
vt 0.875000 0.500000
vt 0.375000 0.750000
vt 0.625000 0.750000
vt 0.375000 0.500000
vt 0.625000 0.500000
vt 0.375000 0.000000
vt 0.375000 1.000000
vt 0.125000 0.750000
vt 0.625000 0.000000
vt 0.625000 1.000000
vt 0.875000 0.750000
vt 0.375000 0.250000
vt 0.125000 0.500000
vt 0.625000 0.250000
vt 0.875000 0.500000
vt 0.375000 0.750000
vt 0.625000 0.750000
vt 0.375000 0.500000
vt 0.625000 0.500000
vt 0.375000 0.000000
vt 0.375000 1.000000
vt 0.125000 0.750000
vt 0.625000 0.000000
vt 0.625000 1.000000
vt 0.875000 0.750000
vt 0.375000 0.250000
vt 0.125000 0.500000
vt 0.625000 0.250000
vt 0.875000 0.500000
vt 0.375000 0.750000
vt 0.625000 0.750000
vt 0.375000 0.500000
vt 0.625000 0.500000
vt 0.375000 0.000000
vt 0.375000 1.000000
vt 0.125000 0.750000
vt 0.625000 0.000000
vt 0.625000 1.000000
vt 0.875000 0.750000
vt 0.375000 0.250000
vt 0.125000 0.500000
vt 0.625000 0.250000
vt 0.875000 0.500000
vt 0.375000 0.750000
vt 0.625000 0.750000
vt 0.375000 0.500000
vt 0.625000 0.500000
vt 0.375000 0.000000
vt 0.375000 1.000000
vt 0.125000 0.750000
vt 0.625000 0.000000
vt 0.625000 1.000000
vt 0.875000 0.750000
vt 0.375000 0.250000
vt 0.125000 0.500000
vt 0.625000 0.250000
vt 0.875000 0.500000
vt 0.375000 0.750000
vt 0.625000 0.750000
vt 0.375000 0.500000
vt 0.625000 0.500000
vt 0.375000 0.000000
vt 0.375000 1.000000
vt 0.125000 0.750000
vt 0.625000 0.000000
vt 0.625000 1.000000
vt 0.875000 0.750000
vt 0.375000 0.250000
vt 0.125000 0.500000
vt 0.625000 0.250000
vt 0.875000 0.500000
vt 0.375000 0.750000
vt 0.625000 0.750000
vt 0.375000 0.500000
vt 0.625000 0.500000
vt 0.375000 0.000000
vt 0.375000 1.000000
vt 0.125000 0.750000
vt 0.625000 0.000000
vt 0.625000 1.000000
vt 0.875000 0.750000
vt 0.375000 0.250000
vt 0.125000 0.500000
vt 0.625000 0.250000
vt 0.875000 0.500000
vt 0.375000 0.750000
vt 0.625000 0.750000
vt 0.375000 0.500000
vt 0.625000 0.500000
vt 0.375000 0.000000
vt 0.375000 1.000000
vt 0.125000 0.750000
vt 0.625000 0.000000
vt 0.625000 1.000000
vt 0.875000 0.750000
vt 0.375000 0.250000
vt 0.125000 0.500000
vt 0.625000 0.250000
vt 0.875000 0.500000
vt 0.375000 0.750000
vt 0.625000 0.750000
vt 0.375000 0.500000
vt 0.625000 0.500000
vt 0.375000 0.000000
vt 0.375000 1.000000
vt 0.125000 0.750000
vt 0.625000 0.000000
vt 0.625000 1.000000
vt 0.875000 0.750000
vt 0.375000 0.250000
vt 0.125000 0.500000
vt 0.625000 0.250000
vt 0.875000 0.500000
vt 0.375000 0.750000
vt 0.625000 0.750000
vt 0.375000 0.500000
vt 0.625000 0.500000
vt 0.375000 0.000000
vt 0.375000 1.000000
vt 0.125000 0.750000
vt 0.625000 0.000000
vt 0.625000 1.000000
vt 0.875000 0.750000
vt 0.375000 0.250000
vt 0.125000 0.500000
vt 0.625000 0.250000
vt 0.875000 0.500000
vt 0.375000 0.750000
vt 0.625000 0.750000
vt 0.375000 0.500000
vt 0.625000 0.500000
vt 0.375000 0.000000
vt 0.375000 1.000000
vt 0.125000 0.750000
vt 0.625000 0.000000
vt 0.625000 1.000000
vt 0.875000 0.750000
vt 0.375000 0.250000
vt 0.125000 0.500000
vt 0.625000 0.250000
vt 0.875000 0.500000
vt 0.375000 0.750000
vt 0.625000 0.750000
vt 0.375000 0.500000
vt 0.625000 0.500000
vt 0.375000 0.000000
vt 0.375000 1.000000
vt 0.125000 0.750000
vt 0.625000 0.000000
vt 0.625000 1.000000
vt 0.875000 0.750000
vt 0.375000 0.250000
vt 0.125000 0.500000
vt 0.625000 0.250000
vt 0.875000 0.500000
vt 0.375000 0.750000
vt 0.625000 0.750000
vt 0.375000 0.500000
vt 0.625000 0.500000
vt 0.375000 0.000000
vt 0.375000 1.000000
vt 0.125000 0.750000
vt 0.625000 0.000000
vt 0.625000 1.000000
vt 0.875000 0.750000
vt 0.375000 0.250000
vt 0.125000 0.500000
vt 0.625000 0.250000
vt 0.875000 0.500000
vt 0.375000 0.750000
vt 0.625000 0.750000
vt 0.375000 0.500000
vt 0.625000 0.500000
vt 0.375000 0.000000
vt 0.375000 1.000000
vt 0.125000 0.750000
vt 0.625000 0.000000
vt 0.625000 1.000000
vt 0.875000 0.750000
vt 0.375000 0.250000
vt 0.125000 0.500000
vt 0.625000 0.250000
vt 0.875000 0.500000
vt 0.375000 0.750000
vt 0.625000 0.750000
vt 0.375000 0.500000
vt 0.625000 0.500000
vt 0.375000 0.000000
vt 0.375000 1.000000
vt 0.125000 0.750000
vt 0.625000 0.000000
vt 0.625000 1.000000
vt 0.875000 0.750000
vt 0.375000 0.250000
vt 0.125000 0.500000
vt 0.625000 0.250000
vt 0.875000 0.500000
vt 0.375000 0.750000
vt 0.625000 0.750000
vt 0.375000 0.500000
vt 0.625000 0.500000
vt 0.375000 0.000000
vt 0.375000 1.000000
vt 0.125000 0.750000
vt 0.625000 0.000000
vt 0.625000 1.000000
vt 0.875000 0.750000
vt 0.375000 0.250000
vt 0.125000 0.500000
vt 0.625000 0.250000
vt 0.875000 0.500000
vt 0.375000 0.750000
vt 0.625000 0.750000
vt 0.375000 0.500000
vt 0.625000 0.500000
vt 0.375000 0.000000
vt 0.375000 1.000000
vt 0.125000 0.750000
vt 0.625000 0.000000
vt 0.625000 1.000000
vt 0.875000 0.750000
vt 0.375000 0.250000
vt 0.125000 0.500000
vt 0.625000 0.250000
vt 0.875000 0.500000
vt 0.375000 0.750000
vt 0.625000 0.750000
vt 0.375000 0.500000
vt 0.625000 0.500000
vt 0.375000 0.000000
vt 0.375000 1.000000
vt 0.125000 0.750000
vt 0.625000 0.000000
vt 0.625000 1.000000
vt 0.875000 0.750000
vt 0.375000 0.250000
vt 0.125000 0.500000
vt 0.625000 0.250000
vt 0.875000 0.500000
vt 0.375000 0.750000
vt 0.625000 0.750000
vt 0.375000 0.500000
vt 0.625000 0.500000
vt 0.375000 0.000000
vt 0.375000 1.000000
vt 0.125000 0.750000
vt 0.625000 0.000000
vt 0.625000 1.000000
vt 0.875000 0.750000
vt 0.375000 0.250000
vt 0.125000 0.500000
vt 0.625000 0.250000
vt 0.875000 0.500000
vt 0.375000 0.750000
vt 0.625000 0.750000
vt 0.375000 0.500000
vt 0.625000 0.500000
s 0
usemtl Sidewalk.057
f 1/1/1 2/4/1 4/9/1 3/7/1
f 3/7/2 4/9/2 8/14/2 7/13/2
f 7/13/3 8/14/3 6/12/3 5/11/3
f 5/11/4 6/12/4 2/5/4 1/2/4
f 3/8/5 7/13/5 5/11/5 1/3/5
f 8/14/6 4/10/6 2/6/6 6/12/6
usemtl Sidewalk.053
f 9/15/4 10/18/4 12/23/4 11/21/4
f 11/21/1 12/23/1 16/28/1 15/27/1
f 15/27/2 16/28/2 14/26/2 13/25/2
f 13/25/3 14/26/3 10/19/3 9/16/3
f 11/22/5 15/27/5 13/25/5 9/17/5
f 16/28/6 12/24/6 10/20/6 14/26/6
f 25/43/4 26/46/4 28/51/4 27/49/4
f 27/49/1 28/51/1 32/56/1 31/55/1
f 31/55/2 32/56/2 30/54/2 29/53/2
f 29/53/3 30/54/3 26/47/3 25/44/3
f 27/50/5 31/55/5 29/53/5 25/45/5
f 32/56/6 28/52/6 26/48/6 30/54/6
usemtl Road.041
f 17/29/4 18/32/4 20/37/4 19/35/4
f 19/35/1 20/37/1 24/42/1 23/41/1
f 23/41/2 24/42/2 22/40/2 21/39/2
f 21/39/3 22/40/3 18/33/3 17/30/3
f 19/36/5 23/41/5 21/39/5 17/31/5
f 24/42/6 20/38/6 18/34/6 22/40/6
f 65/113/4 66/116/4 68/121/4 67/119/4
f 67/119/1 68/121/1 72/126/1 71/125/1
f 71/125/2 72/126/2 70/124/2 69/123/2
f 69/123/3 70/124/3 66/117/3 65/114/3
f 67/120/5 71/125/5 69/123/5 65/115/5
f 72/126/6 68/122/6 66/118/6 70/124/6
usemtl Line.034
f 33/57/4 34/60/4 36/65/4 35/63/4
f 35/63/1 36/65/1 40/70/1 39/69/1
f 39/69/2 40/70/2 38/68/2 37/67/2
f 37/67/3 38/68/3 34/61/3 33/58/3
f 35/64/5 39/69/5 37/67/5 33/59/5
f 40/70/6 36/66/6 34/62/6 38/68/6
f 41/71/4 42/74/4 44/79/4 43/77/4
f 43/77/1 44/79/1 48/84/1 47/83/1
f 47/83/2 48/84/2 46/82/2 45/81/2
f 45/81/3 46/82/3 42/75/3 41/72/3
f 43/78/5 47/83/5 45/81/5 41/73/5
f 48/84/6 44/80/6 42/76/6 46/82/6
f 49/85/4 50/88/4 52/93/4 51/91/4
f 51/91/1 52/93/1 56/98/1 55/97/1
f 55/97/2 56/98/2 54/96/2 53/95/2
f 53/95/3 54/96/3 50/89/3 49/86/3
f 51/92/5 55/97/5 53/95/5 49/87/5
f 56/98/6 52/94/6 50/90/6 54/96/6
f 57/99/4 58/102/4 60/107/4 59/105/4
f 59/105/1 60/107/1 64/112/1 63/111/1
f 63/111/2 64/112/2 62/110/2 61/109/2
f 61/109/3 62/110/3 58/103/3 57/100/3
f 59/106/5 63/111/5 61/109/5 57/101/5
f 64/112/6 60/108/6 58/104/6 62/110/6
usemtl Sidewalk.054
f 73/127/1 74/130/1 76/135/1 75/133/1
f 75/133/2 76/135/2 80/140/2 79/139/2
f 79/139/3 80/140/3 78/138/3 77/137/3
f 77/137/4 78/138/4 74/131/4 73/128/4
f 75/134/5 79/139/5 77/137/5 73/129/5
f 80/140/6 76/136/6 74/132/6 78/138/6
f 89/155/1 90/158/1 92/163/1 91/161/1
f 91/161/2 92/163/2 96/168/2 95/167/2
f 95/167/3 96/168/3 94/166/3 93/165/3
f 93/165/4 94/166/4 90/159/4 89/156/4
f 91/162/5 95/167/5 93/165/5 89/157/5
f 96/168/6 92/164/6 90/160/6 94/166/6
usemtl Road.042
f 81/141/1 82/144/1 84/149/1 83/147/1
f 83/147/2 84/149/2 88/154/2 87/153/2
f 87/153/3 88/154/3 86/152/3 85/151/3
f 85/151/4 86/152/4 82/145/4 81/142/4
f 83/148/5 87/153/5 85/151/5 81/143/5
f 88/154/6 84/150/6 82/146/6 86/152/6
f 129/225/1 130/228/1 132/233/1 131/231/1
f 131/231/2 132/233/2 136/238/2 135/237/2
f 135/237/3 136/238/3 134/236/3 133/235/3
f 133/235/4 134/236/4 130/229/4 129/226/4
f 131/232/5 135/237/5 133/235/5 129/227/5
f 136/238/6 132/234/6 130/230/6 134/236/6
usemtl Line.035
f 97/169/1 98/172/1 100/177/1 99/175/1
f 99/175/2 100/177/2 104/182/2 103/181/2
f 103/181/3 104/182/3 102/180/3 101/179/3
f 101/179/4 102/180/4 98/173/4 97/170/4
f 99/176/5 103/181/5 101/179/5 97/171/5
f 104/182/6 100/178/6 98/174/6 102/180/6
f 105/183/1 106/186/1 108/191/1 107/189/1
f 107/189/2 108/191/2 112/196/2 111/195/2
f 111/195/3 112/196/3 110/194/3 109/193/3
f 109/193/4 110/194/4 106/187/4 105/184/4
f 107/190/5 111/195/5 109/193/5 105/185/5
f 112/196/6 108/192/6 106/188/6 110/194/6
f 113/197/1 114/200/1 116/205/1 115/203/1
f 115/203/2 116/205/2 120/210/2 119/209/2
f 119/209/3 120/210/3 118/208/3 117/207/3
f 117/207/4 118/208/4 114/201/4 113/198/4
f 115/204/5 119/209/5 117/207/5 113/199/5
f 120/210/6 116/206/6 114/202/6 118/208/6
f 121/211/1 122/214/1 124/219/1 123/217/1
f 123/217/2 124/219/2 128/224/2 127/223/2
f 127/223/3 128/224/3 126/222/3 125/221/3
f 125/221/4 126/222/4 122/215/4 121/212/4
f 123/218/5 127/223/5 125/221/5 121/213/5
f 128/224/6 124/220/6 122/216/6 126/222/6
usemtl Road.044
f 137/239/4 138/242/4 140/247/4 139/245/4
f 139/245/1 140/247/1 144/252/1 143/251/1
f 143/251/2 144/252/2 142/250/2 141/249/2
f 141/249/3 142/250/3 138/243/3 137/240/3
f 139/246/5 143/251/5 141/249/5 137/241/5
f 144/252/6 140/248/6 138/244/6 142/250/6
usemtl Road.043
f 145/253/4 146/256/4 148/261/4 147/259/4
f 147/259/1 148/261/1 152/266/1 151/265/1
f 151/265/2 152/266/2 150/264/2 149/263/2
f 149/263/3 150/264/3 146/257/3 145/254/3
f 147/260/5 151/265/5 149/263/5 145/255/5
f 152/266/6 148/262/6 146/258/6 150/264/6
usemtl Road.045
f 153/267/3 154/270/3 156/275/3 155/273/3
f 155/273/4 156/275/4 160/280/4 159/279/4
f 159/279/1 160/280/1 158/278/1 157/277/1
f 157/277/2 158/278/2 154/271/2 153/268/2
f 155/274/5 159/279/5 157/277/5 153/269/5
f 160/280/6 156/276/6 154/272/6 158/278/6
usemtl Road.046
f 161/281/4 162/284/4 164/289/4 163/287/4
f 163/287/1 164/289/1 168/294/1 167/293/1
f 167/293/2 168/294/2 166/292/2 165/291/2
f 165/291/3 166/292/3 162/285/3 161/282/3
f 163/288/5 167/293/5 165/291/5 161/283/5
f 168/294/6 164/290/6 162/286/6 166/292/6
usemtl Line.040
f 169/295/3 170/298/3 172/303/3 171/301/3
f 171/301/4 172/303/4 176/308/4 175/307/4
f 175/307/1 176/308/1 174/306/1 173/305/1
f 173/305/2 174/306/2 170/299/2 169/296/2
f 171/302/5 175/307/5 173/305/5 169/297/5
f 176/308/6 172/304/6 170/300/6 174/306/6
usemtl Line.041
f 177/309/4 178/312/4 180/317/4 179/315/4
f 179/315/1 180/317/1 184/322/1 183/321/1
f 183/321/2 184/322/2 182/320/2 181/319/2
f 181/319/3 182/320/3 178/313/3 177/310/3
f 179/316/5 183/321/5 181/319/5 177/311/5
f 184/322/6 180/318/6 178/314/6 182/320/6
usemtl Line.042
f 185/323/3 186/326/3 188/331/3 187/329/3
f 187/329/4 188/331/4 192/336/4 191/335/4
f 191/335/1 192/336/1 190/334/1 189/333/1
f 189/333/2 190/334/2 186/327/2 185/324/2
f 187/330/5 191/335/5 189/333/5 185/325/5
f 192/336/6 188/332/6 186/328/6 190/334/6
usemtl Line.043
f 193/337/4 194/340/4 196/345/4 195/343/4
f 195/343/1 196/345/1 200/350/1 199/349/1
f 199/349/2 200/350/2 198/348/2 197/347/2
f 197/347/3 198/348/3 194/341/3 193/338/3
f 195/344/5 199/349/5 197/347/5 193/339/5
f 200/350/6 196/346/6 194/342/6 198/348/6
usemtl Line.044
f 201/351/4 202/354/4 204/359/4 203/357/4
f 203/357/1 204/359/1 208/364/1 207/363/1
f 207/363/2 208/364/2 206/362/2 205/361/2
f 205/361/3 206/362/3 202/355/3 201/352/3
f 203/358/5 207/363/5 205/361/5 201/353/5
f 208/364/6 204/360/6 202/356/6 206/362/6
usemtl Line.045
f 209/365/3 210/368/3 212/373/3 211/371/3
f 211/371/4 212/373/4 216/378/4 215/377/4
f 215/377/1 216/378/1 214/376/1 213/375/1
f 213/375/2 214/376/2 210/369/2 209/366/2
f 211/372/5 215/377/5 213/375/5 209/367/5
f 216/378/6 212/374/6 210/370/6 214/376/6
usemtl Sidewalk.055
f 217/379/4 218/382/4 220/387/4 219/385/4
f 219/385/1 220/387/1 224/392/1 223/391/1
f 223/391/2 224/392/2 222/390/2 221/389/2
f 221/389/3 222/390/3 218/383/3 217/380/3
f 219/386/5 223/391/5 221/389/5 217/381/5
f 224/392/6 220/388/6 218/384/6 222/390/6
usemtl Sidewalk.056
f 225/393/1 226/396/1 228/401/1 227/399/1
f 227/399/2 228/401/2 232/406/2 231/405/2
f 231/405/3 232/406/3 230/404/3 229/403/3
f 229/403/4 230/404/4 226/397/4 225/394/4
f 227/400/5 231/405/5 229/403/5 225/395/5
f 232/406/6 228/402/6 226/398/6 230/404/6
