# Blender 3.3.1
# www.blender.org
mtllib Yol Donus.mtl
o Yol_Donus
v -17.951984 -0.039724 28.048786
v -17.951984 0.060276 28.048786
v -18.051985 -0.039724 28.048786
v -18.051985 0.060276 28.048786
v -17.951984 -0.039724 26.548786
v -17.951984 0.060276 26.548786
v -18.051985 -0.039724 26.548786
v -18.051985 0.060276 26.548786
v -18.049923 -0.039724 28.049971
v -18.049923 0.060276 28.049971
v -18.049923 -0.039724 27.949970
v -18.049923 0.060276 27.949970
v -16.549925 -0.039724 28.049971
v -16.549925 0.060276 28.049971
v -16.549923 -0.039724 27.949970
v -16.549923 0.060276 27.949970
v -16.993509 -0.050000 27.001356
v -16.993509 0.150000 27.001356
v -16.993509 -0.050000 26.001356
v -16.993509 0.150000 26.001356
v -15.993509 -0.050000 27.001356
v -15.993509 0.150000 27.001356
v -15.993509 -0.050000 26.001356
v -15.993509 0.150000 26.001356
v -15.797932 -0.039724 28.049971
v -15.797932 0.060276 28.049971
v -15.797932 -0.039724 27.949970
v -15.797932 0.060276 27.949970
v -13.797931 -0.039724 28.049971
v -13.797931 0.060276 28.049971
v -13.797931 -0.039724 27.949970
v -13.797931 0.060276 27.949970
v -15.998009 -0.050000 29.000002
v -15.998009 0.050000 29.000002
v -15.998009 -0.050000 27.000002
v -15.998009 0.050000 27.000002
v -10.998009 -0.050000 29.000002
v -10.998009 0.050000 29.000002
v -10.998009 -0.050000 27.000002
v -10.998009 0.050000 27.000002
v -15.998009 -0.050000 26.999460
v -15.998009 0.150000 26.999460
v -15.998009 -0.050000 25.999460
v -15.998009 0.150000 25.999460
v -10.998009 -0.050000 26.999460
v -10.998009 0.150000 26.999460
v -10.998009 -0.050000 25.999460
v -10.998009 0.150000 25.999460
v -15.998009 -0.050000 30.001356
v -15.998009 0.150000 30.001356
v -15.998009 -0.050000 29.001356
v -15.998009 0.150000 29.001356
v -10.998009 -0.050000 30.001356
v -10.998009 0.150000 30.001356
v -10.998009 -0.050000 29.001356
v -10.998009 0.150000 29.001356
v -13.199012 -0.039724 28.050022
v -13.199012 0.060276 28.050022
v -13.199012 -0.039724 27.950024
v -13.199012 0.060276 27.950024
v -11.199012 -0.039724 28.050022
v -11.199012 0.060276 28.050022
v -11.199012 -0.039724 27.950024
v -11.199012 0.060276 27.950024
v -18.044603 -0.039724 21.201973
v -18.044603 0.060276 21.201973
v -17.944603 -0.039724 21.201973
v -17.944603 0.060276 21.201973
v -18.044603 -0.039724 23.201973
v -18.044603 0.060276 23.201973
v -17.944603 -0.039724 23.201973
v -17.944603 0.060276 23.201973
v -18.994635 -0.050000 21.001896
v -18.994635 0.050000 21.001896
v -16.994635 -0.050000 21.001896
v -16.994635 0.050000 21.001896
v -18.994635 -0.050000 26.001896
v -18.994635 0.050000 26.001896
v -16.994635 -0.050000 26.001896
v -16.994635 0.050000 26.001896
v -16.994093 -0.050000 21.001896
v -16.994093 0.150000 21.001896
v -15.994093 -0.050000 21.001896
v -15.994093 0.150000 21.001896
v -16.994093 -0.050000 26.001896
v -16.994093 0.150000 26.001896
v -15.994093 -0.050000 26.001896
v -15.994093 0.150000 26.001896
v -19.995991 -0.050000 21.001896
v -19.995991 0.150000 21.001896
v -18.995991 -0.050000 21.001896
v -18.995991 0.150000 21.001896
v -19.995989 -0.050000 26.001896
v -19.995989 0.150000 26.001896
v -18.995989 -0.050000 26.001896
v -18.995989 0.150000 26.001896
v -18.044657 -0.039724 23.800894
v -18.044657 0.060276 23.800894
v -17.944656 -0.039724 23.800894
v -17.944656 0.060276 23.800894
v -18.044655 -0.039724 25.800894
v -18.044655 0.060276 25.800894
v -17.944656 -0.039724 25.800894
v -17.944656 0.060276 25.800894
v -18.000000 -0.050000 29.000002
v -18.000000 0.050000 29.000002
v -18.000000 -0.050000 27.000002
v -18.000000 0.050000 27.000002
v -16.000000 -0.050000 29.000002
v -16.000000 0.050000 29.000002
v -16.000000 -0.050000 27.000002
v -16.000000 0.050000 27.000002
v -19.000000 -0.050000 29.000002
v -19.000000 0.050000 29.000002
v -19.000000 -0.050000 27.000002
v -19.000000 0.050000 27.000002
v -17.000000 -0.050000 29.000002
v -17.000000 0.050000 29.000002
v -17.000000 -0.050000 27.000002
v -17.000000 0.050000 27.000002
v -19.000000 -0.050000 28.000002
v -19.000000 0.050000 28.000002
v -19.000000 -0.050000 26.000002
v -19.000000 0.050000 26.000002
v -17.000000 -0.050000 28.000002
v -17.000000 0.050000 28.000002
v -17.000000 -0.050000 26.000002
v -17.000000 0.050000 26.000002
v -20.000000 -0.050000 30.001356
v -20.000000 0.150000 30.001356
v -20.000000 -0.050000 29.001356
v -20.000000 0.150000 29.001356
v -16.000000 -0.050000 30.001354
v -16.000000 0.150000 30.001354
v -16.000000 -0.050000 29.001354
v -16.000000 0.150000 29.001354
v -20.000750 -0.050000 26.006340
v -20.000750 0.150000 26.006340
v -19.000750 -0.050000 26.006340
v -19.000750 0.150000 26.006340
v -20.000748 -0.050000 30.006340
v -20.000748 0.150000 30.006340
v -19.000750 -0.050000 30.006340
v -19.000750 0.150000 30.006340
vn -0.0000 -0.0000 1.0000
vn -1.0000 -0.0000 -0.0000
vn -0.0000 -0.0000 -1.0000
vn 1.0000 -0.0000 -0.0000
vn -0.0000 -1.0000 -0.0000
vn -0.0000 1.0000 -0.0000
vt 0.375000 0.000000
vt 0.375000 1.000000
vt 0.125000 0.750000
vt 0.625000 0.000000
vt 0.625000 1.000000
vt 0.875000 0.750000
vt 0.375000 0.250000
vt 0.125000 0.500000
vt 0.625000 0.250000
vt 0.875000 0.500000
vt 0.375000 0.750000
vt 0.625000 0.750000
vt 0.375000 0.500000
vt 0.625000 0.500000
vt 0.375000 0.000000
vt 0.375000 1.000000
vt 0.125000 0.750000
vt 0.625000 0.000000
vt 0.625000 1.000000
vt 0.875000 0.750000
vt 0.375000 0.250000
vt 0.125000 0.500000
vt 0.625000 0.250000
vt 0.875000 0.500000
vt 0.375000 0.750000
vt 0.625000 0.750000
vt 0.375000 0.500000
vt 0.625000 0.500000
vt 0.375000 0.000000
vt 0.375000 1.000000
vt 0.125000 0.750000
vt 0.625000 0.000000
vt 0.625000 1.000000
vt 0.875000 0.750000
vt 0.375000 0.250000
vt 0.125000 0.500000
vt 0.625000 0.250000
vt 0.875000 0.500000
vt 0.375000 0.750000
vt 0.625000 0.750000
vt 0.375000 0.500000
vt 0.625000 0.500000
vt 0.375000 0.000000
vt 0.375000 1.000000
vt 0.125000 0.750000
vt 0.625000 0.000000
vt 0.625000 1.000000
vt 0.875000 0.750000
vt 0.375000 0.250000
vt 0.125000 0.500000
vt 0.625000 0.250000
vt 0.875000 0.500000
vt 0.375000 0.750000
vt 0.625000 0.750000
vt 0.375000 0.500000
vt 0.625000 0.500000
vt 0.375000 0.000000
vt 0.375000 1.000000
vt 0.125000 0.750000
vt 0.625000 0.000000
vt 0.625000 1.000000
vt 0.875000 0.750000
vt 0.375000 0.250000
vt 0.125000 0.500000
vt 0.625000 0.250000
vt 0.875000 0.500000
vt 0.375000 0.750000
vt 0.625000 0.750000
vt 0.375000 0.500000
vt 0.625000 0.500000
vt 0.375000 0.000000
vt 0.375000 1.000000
vt 0.125000 0.750000
vt 0.625000 0.000000
vt 0.625000 1.000000
vt 0.875000 0.750000
vt 0.375000 0.250000
vt 0.125000 0.500000
vt 0.625000 0.250000
vt 0.875000 0.500000
vt 0.375000 0.750000
vt 0.625000 0.750000
vt 0.375000 0.500000
vt 0.625000 0.500000
vt 0.375000 0.000000
vt 0.375000 1.000000
vt 0.125000 0.750000
vt 0.625000 0.000000
vt 0.625000 1.000000
vt 0.875000 0.750000
vt 0.375000 0.250000
vt 0.125000 0.500000
vt 0.625000 0.250000
vt 0.875000 0.500000
vt 0.375000 0.750000
vt 0.625000 0.750000
vt 0.375000 0.500000
vt 0.625000 0.500000
vt 0.375000 0.000000
vt 0.375000 1.000000
vt 0.125000 0.750000
vt 0.625000 0.000000
vt 0.625000 1.000000
vt 0.875000 0.750000
vt 0.375000 0.250000
vt 0.125000 0.500000
vt 0.625000 0.250000
vt 0.875000 0.500000
vt 0.375000 0.750000
vt 0.625000 0.750000
vt 0.375000 0.500000
vt 0.625000 0.500000
vt 0.375000 0.000000
vt 0.375000 1.000000
vt 0.125000 0.750000
vt 0.625000 0.000000
vt 0.625000 1.000000
vt 0.875000 0.750000
vt 0.375000 0.250000
vt 0.125000 0.500000
vt 0.625000 0.250000
vt 0.875000 0.500000
vt 0.375000 0.750000
vt 0.625000 0.750000
vt 0.375000 0.500000
vt 0.625000 0.500000
vt 0.375000 0.000000
vt 0.375000 1.000000
vt 0.125000 0.750000
vt 0.625000 0.000000
vt 0.625000 1.000000
vt 0.875000 0.750000
vt 0.375000 0.250000
vt 0.125000 0.500000
vt 0.625000 0.250000
vt 0.875000 0.500000
vt 0.375000 0.750000
vt 0.625000 0.750000
vt 0.375000 0.500000
vt 0.625000 0.500000
vt 0.375000 0.000000
vt 0.375000 1.000000
vt 0.125000 0.750000
vt 0.625000 0.000000
vt 0.625000 1.000000
vt 0.875000 0.750000
vt 0.375000 0.250000
vt 0.125000 0.500000
vt 0.625000 0.250000
vt 0.875000 0.500000
vt 0.375000 0.750000
vt 0.625000 0.750000
vt 0.375000 0.500000
vt 0.625000 0.500000
vt 0.375000 0.000000
vt 0.375000 1.000000
vt 0.125000 0.750000
vt 0.625000 0.000000
vt 0.625000 1.000000
vt 0.875000 0.750000
vt 0.375000 0.250000
vt 0.125000 0.500000
vt 0.625000 0.250000
vt 0.875000 0.500000
vt 0.375000 0.750000
vt 0.625000 0.750000
vt 0.375000 0.500000
vt 0.625000 0.500000
vt 0.375000 0.000000
vt 0.375000 1.000000
vt 0.125000 0.750000
vt 0.625000 0.000000
vt 0.625000 1.000000
vt 0.875000 0.750000
vt 0.375000 0.250000
vt 0.125000 0.500000
vt 0.625000 0.250000
vt 0.875000 0.500000
vt 0.375000 0.750000
vt 0.625000 0.750000
vt 0.375000 0.500000
vt 0.625000 0.500000
vt 0.375000 0.000000
vt 0.375000 1.000000
vt 0.125000 0.750000
vt 0.625000 0.000000
vt 0.625000 1.000000
vt 0.875000 0.750000
vt 0.375000 0.250000
vt 0.125000 0.500000
vt 0.625000 0.250000
vt 0.875000 0.500000
vt 0.375000 0.750000
vt 0.625000 0.750000
vt 0.375000 0.500000
vt 0.625000 0.500000
vt 0.375000 0.000000
vt 0.375000 1.000000
vt 0.125000 0.750000
vt 0.625000 0.000000
vt 0.625000 1.000000
vt 0.875000 0.750000
vt 0.375000 0.250000
vt 0.125000 0.500000
vt 0.625000 0.250000
vt 0.875000 0.500000
vt 0.375000 0.750000
vt 0.625000 0.750000
vt 0.375000 0.500000
vt 0.625000 0.500000
vt 0.375000 0.000000
vt 0.375000 1.000000
vt 0.125000 0.750000
vt 0.625000 0.000000
vt 0.625000 1.000000
vt 0.875000 0.750000
vt 0.375000 0.250000
vt 0.125000 0.500000
vt 0.625000 0.250000
vt 0.875000 0.500000
vt 0.375000 0.750000
vt 0.625000 0.750000
vt 0.375000 0.500000
vt 0.625000 0.500000
vt 0.375000 0.000000
vt 0.375000 1.000000
vt 0.125000 0.750000
vt 0.625000 0.000000
vt 0.625000 1.000000
vt 0.875000 0.750000
vt 0.375000 0.250000
vt 0.125000 0.500000
vt 0.625000 0.250000
vt 0.875000 0.500000
vt 0.375000 0.750000
vt 0.625000 0.750000
vt 0.375000 0.500000
vt 0.625000 0.500000
vt 0.375000 0.000000
vt 0.375000 1.000000
vt 0.125000 0.750000
vt 0.625000 0.000000
vt 0.625000 1.000000
vt 0.875000 0.750000
vt 0.375000 0.250000
vt 0.125000 0.500000
vt 0.625000 0.250000
vt 0.875000 0.500000
vt 0.375000 0.750000
vt 0.625000 0.750000
vt 0.375000 0.500000
vt 0.625000 0.500000
s 0
usemtl Line.037
f 1/1/1 2/4/1 4/9/1 3/7/1
f 3/7/2 4/9/2 8/14/2 7/13/2
f 7/13/3 8/14/3 6/12/3 5/11/3
f 5/11/4 6/12/4 2/5/4 1/2/4
f 3/8/5 7/13/5 5/11/5 1/3/5
f 8/14/6 4/10/6 2/6/6 6/12/6
usemtl Line.036
f 9/15/2 10/18/2 12/23/2 11/21/2
f 11/21/3 12/23/3 16/28/3 15/27/3
f 15/27/4 16/28/4 14/26/4 13/25/4
f 13/25/1 14/26/1 10/19/1 9/16/1
f 11/22/5 15/27/5 13/25/5 9/17/5
f 16/28/6 12/24/6 10/20/6 14/26/6
usemtl Sidewalk.052
f 17/29/2 18/32/2 20/37/2 19/35/2
f 19/35/3 20/37/3 24/42/3 23/41/3
f 23/41/4 24/42/4 22/40/4 21/39/4
f 21/39/1 22/40/1 18/33/1 17/30/1
f 19/36/5 23/41/5 21/39/5 17/31/5
f 24/42/6 20/38/6 18/34/6 22/40/6
usemtl Line.032
f 25/43/2 26/46/2 28/51/2 27/49/2
f 27/49/3 28/51/3 32/56/3 31/55/3
f 31/55/4 32/56/4 30/54/4 29/53/4
f 29/53/1 30/54/1 26/47/1 25/44/1
f 27/50/5 31/55/5 29/53/5 25/45/5
f 32/56/6 28/52/6 26/48/6 30/54/6
f 57/99/2 58/102/2 60/107/2 59/105/2
f 59/105/3 60/107/3 64/112/3 63/111/3
f 63/111/4 64/112/4 62/110/4 61/109/4
f 61/109/1 62/110/1 58/103/1 57/100/1
f 59/106/5 63/111/5 61/109/5 57/101/5
f 64/112/6 60/108/6 58/104/6 62/110/6
usemtl Road.036
f 33/57/2 34/60/2 36/65/2 35/63/2
f 35/63/3 36/65/3 40/70/3 39/69/3
f 39/69/4 40/70/4 38/68/4 37/67/4
f 37/67/1 38/68/1 34/61/1 33/58/1
f 35/64/5 39/69/5 37/67/5 33/59/5
f 40/70/6 36/66/6 34/62/6 38/68/6
usemtl Sidewalk.048
f 41/71/2 42/74/2 44/79/2 43/77/2
f 43/77/3 44/79/3 48/84/3 47/83/3
f 47/83/4 48/84/4 46/82/4 45/81/4
f 45/81/1 46/82/1 42/75/1 41/72/1
f 43/78/5 47/83/5 45/81/5 41/73/5
f 48/84/6 44/80/6 42/76/6 46/82/6
f 49/85/2 50/88/2 52/93/2 51/91/2
f 51/91/3 52/93/3 56/98/3 55/97/3
f 55/97/4 56/98/4 54/96/4 53/95/4
f 53/95/1 54/96/1 50/89/1 49/86/1
f 51/92/5 55/97/5 53/95/5 49/87/5
f 56/98/6 52/94/6 50/90/6 54/96/6
usemtl Line.033
f 65/113/3 66/116/3 68/121/3 67/119/3
f 67/119/4 68/121/4 72/126/4 71/125/4
f 71/125/1 72/126/1 70/124/1 69/123/1
f 69/123/2 70/124/2 66/117/2 65/114/2
f 67/120/5 71/125/5 69/123/5 65/115/5
f 72/126/6 68/122/6 66/118/6 70/124/6
f 97/169/3 98/172/3 100/177/3 99/175/3
f 99/175/4 100/177/4 104/182/4 103/181/4
f 103/181/1 104/182/1 102/180/1 101/179/1
f 101/179/2 102/180/2 98/173/2 97/170/2
f 99/176/5 103/181/5 101/179/5 97/171/5
f 104/182/6 100/178/6 98/174/6 102/180/6
usemtl Road.037
f 73/127/3 74/130/3 76/135/3 75/133/3
f 75/133/4 76/135/4 80/140/4 79/139/4
f 79/139/1 80/140/1 78/138/1 77/137/1
f 77/137/2 78/138/2 74/131/2 73/128/2
f 75/134/5 79/139/5 77/137/5 73/129/5
f 80/140/6 76/136/6 74/132/6 78/138/6
usemtl Sidewalk.049
f 81/141/3 82/144/3 84/149/3 83/147/3
f 83/147/4 84/149/4 88/154/4 87/153/4
f 87/153/1 88/154/1 86/152/1 85/151/1
f 85/151/2 86/152/2 82/145/2 81/142/2
f 83/148/5 87/153/5 85/151/5 81/143/5
f 88/154/6 84/150/6 82/146/6 86/152/6
f 89/155/3 90/158/3 92/163/3 91/161/3
f 91/161/4 92/163/4 96/168/4 95/167/4
f 95/167/1 96/168/1 94/166/1 93/165/1
f 93/165/2 94/166/2 90/159/2 89/156/2
f 91/162/5 95/167/5 93/165/5 89/157/5
f 96/168/6 92/164/6 90/160/6 94/166/6
usemtl Road.039
f 105/183/2 106/186/2 108/191/2 107/189/2
f 107/189/3 108/191/3 112/196/3 111/195/3
f 111/195/4 112/196/4 110/194/4 109/193/4
f 109/193/1 110/194/1 106/187/1 105/184/1
f 107/190/5 111/195/5 109/193/5 105/185/5
f 112/196/6 108/192/6 106/188/6 110/194/6
usemtl Road.038
f 113/197/2 114/200/2 116/205/2 115/203/2
f 115/203/3 116/205/3 120/210/3 119/209/3
f 119/209/4 120/210/4 118/208/4 117/207/4
f 117/207/1 118/208/1 114/201/1 113/198/1
f 115/204/5 119/209/5 117/207/5 113/199/5
f 120/210/6 116/206/6 114/202/6 118/208/6
usemtl Road.040
f 121/211/2 122/214/2 124/219/2 123/217/2
f 123/217/3 124/219/3 128/224/3 127/223/3
f 127/223/4 128/224/4 126/222/4 125/221/4
f 125/221/1 126/222/1 122/215/1 121/212/1
f 123/218/5 127/223/5 125/221/5 121/213/5
f 128/224/6 124/220/6 122/216/6 126/222/6
usemtl Sidewalk
f 129/225/2 130/228/2 132/233/2 131/231/2
f 131/231/3 132/233/3 136/238/3 135/237/3
f 135/237/4 136/238/4 134/236/4 133/235/4
f 133/235/1 134/236/1 130/229/1 129/226/1
f 131/232/5 135/237/5 133/235/5 129/227/5
f 136/238/6 132/234/6 130/230/6 134/236/6
usemtl Sidewalk
f 137/239/3 138/242/3 140/247/3 139/245/3
f 139/245/4 140/247/4 144/252/4 143/251/4
f 143/251/1 144/252/1 142/250/1 141/249/1
f 141/249/2 142/250/2 138/243/2 137/240/2
f 139/246/5 143/251/5 141/249/5 137/241/5
f 144/252/6 140/248/6 138/244/6 142/250/6
